<svg width="161" height="117" viewBox="0 0 361 117" fill="none" xmlns="http://www.w3.org/2000/svg">
<path fill-rule="evenodd" clip-rule="evenodd" d="M65.081 0.588133L69.0755 10.0565L86.6977 51.8276H130.484H133.528L134.926 54.5319L163.442 109.704L167.213 117H159H106.656H8.99994H0.508814L4.62754 109.575L60.0963 9.57471L65.081 0.588133ZM90.9164 61.8276L109.974 107H150.787L127.44 61.8276H90.9164ZM99.1201 107L63.8563 23.4119L17.4911 107H99.1201ZM187.479 51.348C187.376 50.3168 186.937 49.5156 186.162 48.9446C185.386 48.3736 184.334 48.0881 183.004 48.0881C182.101 48.0881 181.338 48.2159 180.716 48.4716C180.094 48.7188 179.616 49.0639 179.284 49.5071C178.96 49.9503 178.798 50.4531 178.798 51.0156C178.781 51.4844 178.879 51.8935 179.092 52.2429C179.314 52.5924 179.616 52.8949 180 53.1506C180.383 53.3978 180.827 53.6151 181.329 53.8026C181.832 53.9816 182.369 54.135 182.94 54.2628L185.293 54.8253C186.435 55.081 187.483 55.4219 188.437 55.848C189.392 56.2742 190.219 56.7983 190.918 57.4205C191.616 58.0426 192.158 58.7756 192.541 59.6193C192.933 60.4631 193.133 61.4304 193.142 62.5213C193.133 64.1236 192.724 65.5128 191.915 66.6889C191.114 67.8566 189.954 68.7642 188.437 69.412C186.929 70.0512 185.109 70.3708 182.979 70.3708C180.865 70.3708 179.024 70.0469 177.456 69.3992C175.896 68.7514 174.677 67.7926 173.8 66.5228C172.93 65.2443 172.474 63.6634 172.432 61.7799H177.788C177.848 62.6577 178.099 63.3906 178.543 63.9787C178.994 64.5583 179.595 64.9972 180.345 65.2955C181.104 65.5853 181.96 65.7301 182.915 65.7301C183.852 65.7301 184.666 65.5938 185.356 65.321C186.055 65.0483 186.597 64.6691 186.98 64.1833C187.364 63.6975 187.555 63.1392 187.555 62.5085C187.555 61.9205 187.381 61.4262 187.031 61.0256C186.69 60.625 186.187 60.2841 185.523 60.0029C184.866 59.7216 184.061 59.4659 183.106 59.2358L180.256 58.5199C178.048 57.983 176.305 57.1435 175.027 56.0014C173.749 54.8594 173.114 53.321 173.122 51.3864C173.114 49.8012 173.535 48.4162 174.388 47.2316C175.249 46.0469 176.429 45.1222 177.929 44.4574C179.429 43.7926 181.133 43.4603 183.043 43.4603C184.986 43.4603 186.682 43.7926 188.131 44.4574C189.588 45.1222 190.722 46.0469 191.531 47.2316C192.341 48.4162 192.758 49.7884 192.784 51.348H187.479ZM202.363 70.3708C201.11 70.3708 199.993 70.1534 199.013 69.7188C198.033 69.2756 197.257 68.6236 196.686 67.7628C196.124 66.8935 195.843 65.8111 195.843 64.5156C195.843 63.4247 196.043 62.5085 196.443 61.7671C196.844 61.0256 197.389 60.429 198.08 59.9773C198.77 59.5256 199.554 59.1847 200.432 58.9546C201.318 58.7245 202.247 58.5625 203.219 58.4688C204.361 58.3495 205.282 58.2387 205.98 58.1364C206.679 58.0256 207.186 57.8637 207.502 57.6506C207.817 57.4375 207.975 57.1222 207.975 56.7046V56.6279C207.975 55.8182 207.719 55.1918 207.208 54.7486C206.705 54.3054 205.989 54.0838 205.06 54.0838C204.08 54.0838 203.3 54.3012 202.72 54.7358C202.141 55.162 201.757 55.6989 201.57 56.3466L196.533 55.9375C196.789 54.7443 197.291 53.7131 198.041 52.8438C198.791 51.9659 199.759 51.2926 200.943 50.8239C202.137 50.3466 203.517 50.108 205.086 50.108C206.176 50.108 207.22 50.2358 208.218 50.4915C209.223 50.7472 210.114 51.1435 210.889 51.6804C211.674 52.2174 212.291 52.9077 212.743 53.7514C213.195 54.5867 213.421 55.5881 213.421 56.7557V70H208.256V67.277H208.103C207.787 67.8906 207.365 68.4318 206.837 68.9006C206.309 69.3608 205.674 69.723 204.932 69.9872C204.191 70.2429 203.334 70.3708 202.363 70.3708ZM203.922 66.6122C204.723 66.6122 205.431 66.4546 206.044 66.1392C206.658 65.8154 207.139 65.3807 207.489 64.8353C207.838 64.2898 208.013 63.6719 208.013 62.9816V60.8978C207.843 61.0085 207.608 61.1108 207.31 61.2046C207.02 61.2898 206.692 61.3708 206.326 61.4475C205.959 61.5156 205.593 61.5796 205.226 61.6392C204.86 61.6904 204.527 61.7372 204.229 61.7799C203.59 61.8736 203.032 62.0228 202.554 62.2273C202.077 62.4318 201.706 62.7088 201.442 63.0583C201.178 63.3992 201.046 63.8253 201.046 64.3367C201.046 65.0781 201.314 65.6449 201.851 66.037C202.397 66.4205 203.087 66.6122 203.922 66.6122ZM228.206 50.3637V54.4546H224.294V70H218.86V54.4546H216.086V50.3637H218.86V48.9446C218.86 47.5213 219.137 46.3409 219.691 45.4034C220.254 44.4659 221.021 43.7628 221.992 43.2941C222.964 42.8253 224.068 42.5909 225.304 42.5909C226.139 42.5909 226.902 42.6549 227.592 42.7827C228.291 42.9105 228.811 43.0256 229.152 43.1279L228.18 47.2188C227.967 47.1506 227.703 47.0867 227.387 47.027C227.081 46.9674 226.765 46.9375 226.441 46.9375C225.64 46.9375 225.082 47.125 224.767 47.5C224.451 47.8665 224.294 48.3821 224.294 49.0469V50.3637H228.206ZM239.778 70.3835C237.758 70.3835 236.02 69.9745 234.562 69.1563C233.114 68.3296 231.997 67.162 231.213 65.6534C230.429 64.1364 230.037 62.3424 230.037 60.2713C230.037 58.2514 230.429 56.4787 231.213 54.9531C231.997 53.4276 233.101 52.2387 234.524 51.3864C235.956 50.5341 237.635 50.108 239.561 50.108C240.856 50.108 242.062 50.3168 243.179 50.7344C244.304 51.1435 245.284 51.7614 246.119 52.5881C246.963 53.4148 247.619 54.4546 248.088 55.7074C248.557 56.9517 248.791 58.4091 248.791 60.0796V61.5753H235.419V61.5881C235.419 62.5597 235.598 63.3992 235.956 64.1066C236.322 64.8139 236.838 65.3594 237.503 65.7429C238.168 66.1264 238.956 66.3182 239.868 66.3182C240.473 66.3182 241.027 66.233 241.53 66.0625C242.033 65.8921 242.463 65.6364 242.821 65.2955C243.179 64.9546 243.452 64.537 243.639 64.0426L248.676 64.375C248.42 65.5853 247.896 66.6421 247.104 67.5455C246.32 68.4404 245.305 69.1392 244.061 69.6421C242.825 70.1364 241.398 70.3835 239.778 70.3835ZM235.969 56.2699C235.638 56.8517 235.457 57.4952 235.424 58.2003H243.665C243.665 57.4162 243.494 56.7216 243.153 56.1165C242.812 55.5114 242.339 55.0384 241.734 54.6975C241.138 54.348 240.443 54.1733 239.651 54.1733C238.824 54.1733 238.091 54.3651 237.452 54.7486C236.821 55.1236 236.327 55.6307 235.969 56.2699ZM260.779 70V43.8182H266.315V54.6208H277.552V43.8182H283.075V70H277.552V59.1847H266.315V70H260.779ZM296.409 70.3835C294.423 70.3835 292.706 69.9617 291.257 69.1179C289.816 68.2656 288.704 67.081 287.92 65.5639C287.136 64.0384 286.744 62.2699 286.744 60.2585C286.744 58.2301 287.136 56.4574 287.92 54.9404C288.704 53.4148 289.816 52.2301 291.257 51.3864C292.706 50.5341 294.423 50.108 296.409 50.108C298.394 50.108 300.108 50.5341 301.548 51.3864C302.997 52.2301 304.113 53.4148 304.897 54.9404C305.681 56.4574 306.073 58.2301 306.073 60.2585C306.073 62.2699 305.681 64.0384 304.897 65.5639C304.113 67.081 302.997 68.2656 301.548 69.1179C300.108 69.9617 298.394 70.3835 296.409 70.3835ZM296.434 66.1648C297.338 66.1648 298.092 65.9091 298.697 65.3978C299.302 64.8779 299.758 64.1705 300.065 63.2756C300.38 62.3807 300.538 61.3622 300.538 60.2202C300.538 59.0781 300.38 58.0597 300.065 57.1648C299.758 56.2699 299.302 55.5625 298.697 55.0426C298.092 54.5228 297.338 54.2628 296.434 54.2628C295.522 54.2628 294.755 54.5228 294.133 55.0426C293.519 55.5625 293.055 56.2699 292.74 57.1648C292.433 58.0597 292.279 59.0781 292.279 60.2202C292.279 61.3622 292.433 62.3807 292.74 63.2756C293.055 64.1705 293.519 64.8779 294.133 65.3978C294.755 65.9091 295.522 66.1648 296.434 66.1648ZM309.615 70V50.3637H314.805V53.8281H315.035C315.444 52.6776 316.126 51.7699 317.081 51.1051C318.035 50.4404 319.177 50.108 320.507 50.108C321.853 50.108 323 50.4446 323.946 51.1179C324.892 51.7827 325.522 52.6861 325.838 53.8281H326.042C326.443 52.7031 327.167 51.804 328.215 51.1307C329.272 50.4489 330.521 50.108 331.961 50.108C333.794 50.108 335.281 50.6918 336.423 51.8594C337.573 53.0185 338.149 54.6634 338.149 56.7941V70H332.715V57.8679C332.715 56.777 332.426 55.9588 331.846 55.4134C331.267 54.8679 330.542 54.5952 329.673 54.5952C328.684 54.5952 327.913 54.9105 327.359 55.5412C326.805 56.1634 326.528 56.9858 326.528 58.0085V70H321.248V57.7529C321.248 56.7898 320.971 56.0228 320.417 55.4517C319.872 54.8807 319.152 54.5952 318.257 54.5952C317.652 54.5952 317.106 54.7486 316.62 55.0554C316.143 55.3537 315.764 55.7756 315.483 56.321C315.201 56.858 315.061 57.4887 315.061 58.2131V70H309.615ZM351.399 70.3835C349.38 70.3835 347.641 69.9745 346.184 69.1563C344.735 68.3296 343.618 67.162 342.834 65.6534C342.05 64.1364 341.658 62.3424 341.658 60.2713C341.658 58.2514 342.05 56.4787 342.834 54.9531C343.618 53.4276 344.722 52.2387 346.145 51.3864C347.577 50.5341 349.256 50.108 351.182 50.108C352.478 50.108 353.684 50.3168 354.8 50.7344C355.925 51.1435 356.905 51.7614 357.74 52.5881C358.584 53.4148 359.24 54.4546 359.709 55.7074C360.178 56.9517 360.412 58.4091 360.412 60.0796V61.5753H347.04V61.5881C347.04 62.5597 347.219 63.3992 347.577 64.1066C347.943 64.8139 348.459 65.3594 349.124 65.7429C349.789 66.1264 350.577 66.3182 351.489 66.3182C352.094 66.3182 352.648 66.233 353.151 66.0625C353.654 65.8921 354.084 65.6364 354.442 65.2955C354.8 64.9546 355.073 64.537 355.26 64.0426L360.297 64.375C360.041 65.5853 359.517 66.6421 358.725 67.5455C357.941 68.4404 356.926 69.1392 355.682 69.6421C354.446 70.1364 353.019 70.3835 351.399 70.3835ZM347.59 56.2699C347.26 56.8517 347.078 57.4952 347.045 58.2003H355.286C355.286 57.4162 355.115 56.7216 354.774 56.1165C354.434 55.5114 353.961 55.0384 353.355 54.6975C352.759 54.348 352.064 54.1733 351.272 54.1733C350.445 54.1733 349.712 54.3651 349.073 54.7486C348.442 55.1236 347.948 55.6307 347.59 56.2699ZM203.202 92.8182V111H205.403V102.868H213.287V100.915H205.403V94.7713H214.104V92.8182H203.202ZM225.33 97.3637V105.425C225.33 106.277 225.143 106.978 224.77 107.529C224.403 108.079 223.948 108.488 223.403 108.754C222.865 109.02 222.335 109.153 221.814 109.153C220.944 109.153 220.228 108.858 219.666 108.266C219.109 107.674 218.831 106.881 218.831 105.886V97.3637H216.736V106.028C216.736 107.188 216.925 108.15 217.304 108.914C217.683 109.671 218.204 110.239 218.867 110.618C219.529 110.991 220.287 111.178 221.139 111.178C222.169 111.178 223.021 110.938 223.696 110.458C224.371 109.973 224.868 109.384 225.188 108.692H225.33V111H227.425V97.3637H225.33ZM231.262 97.3637V111H233.357V102.371C233.357 101.755 233.505 101.208 233.801 100.728C234.103 100.243 234.512 99.8643 235.026 99.592C235.547 99.3138 236.139 99.1747 236.802 99.1747C237.08 99.1747 237.344 99.1954 237.592 99.2369C237.847 99.2724 238.009 99.299 238.08 99.3168V97.1861C237.962 97.1743 237.787 97.1654 237.557 97.1595C237.326 97.1535 237.133 97.1506 236.98 97.1506C236.163 97.1506 235.429 97.3607 234.778 97.7809C234.127 98.2011 233.677 98.7486 233.428 99.4233H233.286V97.3637H231.262ZM242.659 111V102.797C242.659 102.004 242.81 101.329 243.112 100.773C243.414 100.216 243.825 99.7932 244.346 99.5032C244.873 99.2132 245.471 99.0682 246.139 99.0682C247.11 99.0682 247.873 99.37 248.43 99.9737C248.986 100.572 249.264 101.406 249.264 102.477V111H251.359V102.335C251.359 101.175 251.167 100.216 250.782 99.4588C250.398 98.6953 249.859 98.1272 249.167 97.7543C248.474 97.3755 247.666 97.1861 246.743 97.1861C245.713 97.1861 244.873 97.3992 244.222 97.8253C243.571 98.2455 243.085 98.8019 242.766 99.4943H242.588V97.3637H240.564V111H242.659ZM255.188 97.3637V111H257.283V97.3637H255.188ZM255.197 94.6737C255.493 94.9518 255.845 95.0909 256.253 95.0909C256.662 95.0909 257.011 94.9518 257.301 94.6737C257.597 94.3955 257.745 94.0611 257.745 93.6705C257.745 93.2799 257.597 92.9454 257.301 92.6673C257.011 92.3891 256.662 92.25 256.253 92.25C255.845 92.25 255.493 92.3891 255.197 92.6673C254.907 92.9454 254.762 93.2799 254.762 93.6705C254.762 94.0611 254.907 94.3955 255.197 94.6737ZM267.051 99.1392V97.3637H264.139V94.0966H262.044V97.3637H259.984V99.1392H262.044V107.662C262.044 108.455 262.227 109.112 262.594 109.633C262.967 110.154 263.435 110.541 263.997 110.796C264.565 111.05 265.145 111.178 265.737 111.178C266.128 111.178 266.45 111.148 266.705 111.089C266.959 111.036 267.158 110.982 267.3 110.929L266.874 109.047L266.518 109.118C266.37 109.142 266.181 109.153 265.95 109.153C265.642 109.153 265.349 109.106 265.071 109.011C264.799 108.911 264.574 108.715 264.397 108.425C264.225 108.13 264.139 107.686 264.139 107.094V99.1392H267.051ZM278.796 97.3637V105.425C278.796 106.277 278.61 106.978 278.237 107.529C277.87 108.079 277.414 108.488 276.87 108.754C276.331 109.02 275.802 109.153 275.281 109.153C274.411 109.153 273.695 108.858 273.132 108.266C272.576 107.674 272.298 106.881 272.298 105.886V97.3637H270.203V106.028C270.203 107.188 270.392 108.15 270.771 108.914C271.15 109.671 271.671 110.239 272.333 110.618C272.996 110.991 273.754 111.178 274.606 111.178C275.636 111.178 276.488 110.938 277.163 110.458C277.838 109.973 278.335 109.384 278.654 108.692H278.796V111H280.892V97.3637H278.796ZM284.729 97.3637V111H286.824V102.371C286.824 101.755 286.972 101.208 287.268 100.728C287.57 100.243 287.978 99.8643 288.493 99.592C289.014 99.3138 289.606 99.1747 290.269 99.1747C290.547 99.1747 290.81 99.1954 291.059 99.2369C291.313 99.2724 291.476 99.299 291.547 99.3168V97.1861C291.429 97.1743 291.254 97.1654 291.023 97.1595C290.793 97.1535 290.6 97.1506 290.446 97.1506C289.63 97.1506 288.896 97.3607 288.245 97.7809C287.594 98.2011 287.144 98.7486 286.895 99.4233H286.753V97.3637H284.729ZM295.933 110.414C296.886 110.994 298.019 111.284 299.333 111.284C300.256 111.284 301.088 111.142 301.828 110.858C302.568 110.568 303.189 110.166 303.692 109.651C304.195 109.13 304.553 108.526 304.766 107.84L302.742 107.271C302.565 107.745 302.313 108.141 301.988 108.461C301.662 108.775 301.274 109.011 300.825 109.171C300.381 109.325 299.884 109.402 299.333 109.402C298.487 109.402 297.744 109.219 297.105 108.852C296.466 108.479 295.965 107.937 295.604 107.227C295.282 106.578 295.106 105.799 295.076 104.892H304.979V104.004C304.979 102.732 304.811 101.661 304.473 100.791C304.136 99.9205 303.683 99.2221 303.115 98.6953C302.547 98.1627 301.917 97.778 301.224 97.5412C300.532 97.3045 299.83 97.1861 299.12 97.1861C297.889 97.1861 296.812 97.4879 295.889 98.0916C294.971 98.6894 294.255 99.5239 293.74 100.595C293.231 101.661 292.977 102.892 292.977 104.288C292.977 105.685 293.231 106.91 293.74 107.964C294.255 109.011 294.986 109.828 295.933 110.414ZM295.082 103.081C295.122 102.448 295.281 101.851 295.56 101.288C295.886 100.631 296.35 100.098 296.954 99.6897C297.563 99.2754 298.286 99.0682 299.12 99.0682C299.878 99.0682 300.535 99.2428 301.091 99.592C301.653 99.9412 302.085 100.418 302.387 101.021C302.695 101.625 302.849 102.312 302.849 103.081H295.082Z" fill="#2376F3"/>
</svg>
